<?xml version="1.0" encoding="UTF-8" standalone="no"?>
<!-- Uploaded to: SVG Repo, www.svgrepo.com, Generator: SVG Repo Mixer Tools -->

<svg
   fill="#414042"
   version="1.1"
   id="Layer_1"
   width="800px"
   height="800px"
   viewBox="0 0 512 512"
   enable-background="new 0 0 512 512"
   xml:space="preserve"
   sodipodi:docname="dartboard-and-dart-svgrepo-com.svg"
   inkscape:version="1.3.2 (091e20e, 2023-11-25)"
   xmlns:inkscape="http://www.inkscape.org/namespaces/inkscape"
   xmlns:sodipodi="http://sodipodi.sourceforge.net/DTD/sodipodi-0.dtd"
   xmlns="http://www.w3.org/2000/svg"
   xmlns:svg="http://www.w3.org/2000/svg"><defs
   id="defs4">
	
	
	
	
</defs><sodipodi:namedview
   id="namedview4"
   pagecolor="#ffffff"
   bordercolor="#000000"
   borderopacity="0.25"
   inkscape:showpageshadow="2"
   inkscape:pageopacity="0.0"
   inkscape:pagecheckerboard="0"
   inkscape:deskcolor="#d1d1d1"
   inkscape:zoom="0.5725"
   inkscape:cx="400"
   inkscape:cy="399.12664"
   inkscape:window-width="1392"
   inkscape:window-height="1212"
   inkscape:window-x="1527"
   inkscape:window-y="528"
   inkscape:window-maximized="0"
   inkscape:current-layer="Layer_1" />
<g
   id="g4"><path
     d="m 342.02,222.885 c 14.999,24.405 23.823,53.006 23.823,83.691 0,88.446 -71.947,160.398 -160.406,160.398 -88.46,0 -160.407,-71.952 -160.407,-160.398 0,-88.45 71.947,-160.411 160.407,-160.411 30.672,0 59.286,8.815 83.683,23.814 l 24.502,-24.507 c -30.952,-20.844 -68.161,-33.026 -108.185,-33.026 -107.03,0 -194.123,87.087 -194.123,194.13 0,107.039 87.093,194.114 194.123,194.114 107.029,0 194.122,-87.075 194.122,-194.114 0,-40.028 -12.184,-77.256 -33.023,-108.189 z"
     id="path1"
     style="stroke:#414042;stroke-opacity:1" /><path
     d="m 259.882,199.193 c -16.365,-8.338 -34.835,-13.146 -54.445,-13.146 -66.465,0 -120.512,54.064 -120.512,120.529 0,66.447 54.047,120.507 120.512,120.507 66.465,0 120.529,-54.06 120.529,-120.507 0,-19.615 -4.809,-38.089 -13.17,-54.478 l -25.813,25.813 c 3.19,9.017 5.268,18.574 5.268,28.664 0,47.854 -38.956,86.791 -86.813,86.791 -47.858,0 -86.796,-38.938 -86.796,-86.791 0,-47.867 38.938,-86.813 86.796,-86.813 10.094,0 19.643,2.067 28.646,5.244 z"
     id="path2"
     style="stroke:#414042;stroke-opacity:1" /><path
     d="m 216.058,257.563 c 0.014,-0.771 0.197,-1.513 0.261,-2.278 -3.524,-0.743 -7.146,-1.16 -10.882,-1.16 -28.958,0 -52.438,23.493 -52.438,52.451 0,28.953 23.479,52.429 52.438,52.429 28.957,0 52.438,-23.476 52.438,-52.429 0,-3.745 -0.427,-7.39 -1.155,-10.914 -0.771,0.063 -1.513,0.247 -2.27,0.266 l -27.102,27.105 c -5.134,5.103 -11.932,7.912 -19.161,7.912 -7.211,0 -14.027,-2.81 -19.198,-7.953 -10.571,-10.571 -10.571,-27.784 0,-38.378 z"
     id="path3"
     style="stroke:#414042;stroke-opacity:1" /><path
     d="m 500.35,84.713 c -0.756,-2.319 -2.764,-3.993 -5.171,-4.355 l -55.184,-7.719 -8.348,-55.812 c -0.38,-2.414 -2.044,-4.415 -4.363,-5.188 -0.66,-0.222 -1.349,-0.33 -2.008,-0.33 -1.696,0 -3.36,0.677 -4.58,1.902 L 361.231,72.66 c -1.448,1.441 -2.108,3.491 -1.811,5.499 l 5.794,39.554 -126.552,126.557 c -5.318,5.317 -6.785,12.771 -5.038,19.578 l -32.717,32.685 c -4.016,4.03 -4.016,10.521 0,14.541 2.026,2.008 4.662,3.012 7.279,3.012 2.631,0 5.268,-1.004 7.275,-3.012 l 32.698,-32.707 c 1.811,0.472 3.653,0.71 5.496,0.71 5.106,0 10.177,-1.829 14.064,-5.739 l 126.553,-126.546 39.561,5.803 c 0.299,0.039 0.629,0.064 0.927,0.064 1.71,0 3.355,-0.674 4.574,-1.894 l 59.434,-59.474 c 1.747,-1.722 2.371,-4.257 1.582,-6.578 z"
     id="path4"
     style="stroke:#414042;stroke-opacity:1" /></g>
</svg>
